<svg width="107" height="39" viewBox="0 0 2142 782" fill="none" xmlns="http://www.w3.org/2000/svg">
<g filter="url(#filter0_d_2_20)">
<mask id="path-1-inside-1_2_20" fill="white">
<path d="M2043.08 731.619C2103.51 731.619 2137.28 706.605 2137.28 652.933C2137.28 627.893 2130.17 611.775 2119.53 599.261C2105.3 586.722 2083.97 579.577 2050.21 579.577H2018.23C2009.41 579.577 2002.34 577.813 1995.26 576.049L1995.11 576.011C1988.01 572.419 1982.68 567.05 1982.68 558.103C1982.68 549.155 1986.22 543.787 1991.56 538.418C1996.89 534.852 2004.01 534.852 2014.65 534.852H2124.83V481.18H2005.78C1943.58 481.18 1920.48 520.536 1920.48 556.326C1920.48 635.025 1989.8 631.446 2044.87 633.249C2055.54 633.249 2062.64 635.025 2066.21 638.617C2069.76 642.183 2073.31 649.328 2073.31 656.499C2073.31 663.644 2069.75 669.013 2066.21 672.605C2062.64 676.171 2053.75 677.947 2043.08 677.947H1927.6V731.619H2043.08Z"/>
<path d="M1817.39 579.577C1851.15 579.577 1872.49 586.722 1886.71 599.261C1897.37 611.775 1904.47 627.893 1904.47 652.933C1904.47 706.592 1870.7 731.619 1810.29 731.619H1694.78V677.947H1810.29C1820.96 677.947 1828.06 676.171 1833.39 672.605C1836.94 669.013 1840.51 663.644 1840.51 656.499C1840.51 649.328 1836.93 642.183 1833.39 638.617C1829.85 635.025 1822.72 633.249 1812.08 633.249C1756.99 631.446 1687.67 635.012 1687.67 556.326C1687.67 520.536 1709 481.18 1772.99 481.18H1892.04V534.852H1781.86C1771.19 534.852 1764.1 534.852 1758.76 538.418C1751.65 543.787 1749.89 549.155 1749.89 558.103C1749.89 567.05 1755.19 572.419 1762.32 576.011L1762.62 576.086C1769.62 577.825 1776.67 579.577 1785.42 579.577H1817.39Z"/>
<path d="M1518.87 679.762H1659.24V731.632H1460.22V481.206H1659.24V533.076H1518.87V579.603H1655.69V629.67H1518.87V679.762Z"/>
<path d="M1323.37 481.193C1353.58 481.193 1376.68 482.996 1396.24 493.733C1415.79 504.444 1426.46 520.549 1426.47 549.155C1426.47 588.524 1399.79 609.998 1383.82 615.341C1398.04 620.709 1408.68 629.644 1414.01 636.815C1421.12 649.328 1422.89 660.065 1422.89 683.316V731.619H1364.26V701.224C1364.26 685.118 1364.26 663.644 1353.6 651.13C1344.71 642.196 1332.25 640.394 1310.94 640.394H1246.96V731.619H1186.55V481.193H1323.37Z"/>
<path d="M868.444 481.193H1058.6C1104.8 481.193 1158.12 495.509 1158.14 563.484C1158.14 633.249 1106.58 647.565 1055.05 647.565H980.415V731.619H864.901L792.04 649.328L715.624 731.619H479.263V481.193H715.624L792.027 563.484L868.444 481.193Z"/>
<path d="M1886.71 300.519H1971.99V50.08H1911.58V223.596L1806.74 50.08H1714.32V286.216L1614.81 50.0929H1525.95L1440.65 246.86H1413.99C1398.01 246.86 1382 243.281 1373.13 234.346C1362.46 221.82 1357.13 202.135 1357.13 175.306C1357.13 148.476 1362.46 128.805 1373.13 118.068C1385.56 107.331 1398.01 103.752 1419.32 103.752H1476.18V50.08H1419.32C1378.46 50.08 1346.46 59.0145 1328.7 78.699C1302.06 105.528 1296.72 139.516 1296.72 177.082C1296.72 221.807 1307.39 250.426 1326.94 271.887C1348.25 293.361 1385.57 300.519 1414 300.519H1483.32L1506.42 245.057H1630.81L1653.93 300.519H1774.75V112.686L1886.71 300.519Z"/>
<path d="M1206.11 50.08H1266.51V300.519H1206.11V50.08Z"/>
<path d="M1069.26 50.08C1099.47 50.08 1120.78 50.08 1140.33 60.817C1159.88 73.3305 1172.33 89.4361 1172.32 118.055C1172.32 157.411 1145.64 177.082 1129.67 184.24C1142.1 189.596 1152.76 198.543 1158.1 205.701C1166.97 218.228 1168.74 228.965 1168.74 250.426V300.519H1108.33V268.321C1108.33 254.018 1110.12 232.544 1099.46 220.017C1090.58 211.07 1076.36 209.28 1055.03 209.28H991.056V300.519H932.417V50.08H1069.26Z"/>
<path d="M751.153 248.649H889.764V300.532H690.736V50.0929H889.764V101.962H751.153V146.687H887.986V198.556H751.153V248.649Z"/>
<path d="M548.569 50.08H646.293V300.519H585.876V103.752L498.793 300.519H447.264L360.194 103.752V300.519H239.348L216.25 245.057H91.8606L68.763 300.519H4.7906L111.416 50.08H200.263L301.555 286.203V50.08H397.514L475.708 220.017L548.569 50.08Z"/>
</mask>
<path d="M2043.08 731.619C2103.51 731.619 2137.28 706.605 2137.28 652.933C2137.28 627.893 2130.17 611.775 2119.53 599.261C2105.3 586.722 2083.97 579.577 2050.21 579.577H2018.23C2009.41 579.577 2002.34 577.813 1995.26 576.049L1995.11 576.011C1988.01 572.419 1982.68 567.05 1982.68 558.103C1982.68 549.155 1986.22 543.787 1991.56 538.418C1996.89 534.852 2004.01 534.852 2014.65 534.852H2124.83V481.18H2005.78C1943.58 481.18 1920.48 520.536 1920.48 556.326C1920.48 635.025 1989.8 631.446 2044.87 633.249C2055.54 633.249 2062.64 635.025 2066.21 638.617C2069.76 642.183 2073.31 649.328 2073.31 656.499C2073.31 663.644 2069.75 669.013 2066.21 672.605C2062.64 676.171 2053.75 677.947 2043.08 677.947H1927.6V731.619H2043.08Z" fill="white"/>
<path d="M1817.39 579.577C1851.15 579.577 1872.49 586.722 1886.71 599.261C1897.37 611.775 1904.47 627.893 1904.47 652.933C1904.47 706.592 1870.7 731.619 1810.29 731.619H1694.78V677.947H1810.29C1820.96 677.947 1828.06 676.171 1833.39 672.605C1836.94 669.013 1840.51 663.644 1840.51 656.499C1840.51 649.328 1836.93 642.183 1833.39 638.617C1829.85 635.025 1822.72 633.249 1812.08 633.249C1756.99 631.446 1687.67 635.012 1687.67 556.326C1687.67 520.536 1709 481.18 1772.99 481.18H1892.04V534.852H1781.86C1771.19 534.852 1764.1 534.852 1758.76 538.418C1751.65 543.787 1749.89 549.155 1749.89 558.103C1749.89 567.05 1755.19 572.419 1762.32 576.011L1762.62 576.086C1769.62 577.825 1776.67 579.577 1785.42 579.577H1817.39Z" fill="white"/>
<path d="M1518.87 679.762H1659.24V731.632H1460.22V481.206H1659.24V533.076H1518.87V579.603H1655.69V629.67H1518.87V679.762Z" fill="white"/>
<path d="M1323.37 481.193C1353.58 481.193 1376.68 482.996 1396.24 493.733C1415.79 504.444 1426.46 520.549 1426.47 549.155C1426.47 588.524 1399.79 609.998 1383.82 615.341C1398.04 620.709 1408.68 629.644 1414.01 636.815C1421.12 649.328 1422.89 660.065 1422.89 683.316V731.619H1364.26V701.224C1364.26 685.118 1364.26 663.644 1353.6 651.13C1344.71 642.196 1332.25 640.394 1310.94 640.394H1246.96V731.619H1186.55V481.193H1323.37Z" fill="white"/>
<path d="M868.444 481.193H1058.6C1104.8 481.193 1158.12 495.509 1158.14 563.484C1158.14 633.249 1106.58 647.565 1055.05 647.565H980.415V731.619H864.901L792.04 649.328L715.624 731.619H479.263V481.193H715.624L792.027 563.484L868.444 481.193Z" fill="white"/>
<path d="M1886.71 300.519H1971.99V50.08H1911.58V223.596L1806.74 50.08H1714.32V286.216L1614.81 50.0929H1525.95L1440.65 246.86H1413.99C1398.01 246.86 1382 243.281 1373.13 234.346C1362.46 221.82 1357.13 202.135 1357.13 175.306C1357.13 148.476 1362.46 128.805 1373.13 118.068C1385.56 107.331 1398.01 103.752 1419.32 103.752H1476.18V50.08H1419.32C1378.46 50.08 1346.46 59.0145 1328.7 78.699C1302.06 105.528 1296.72 139.516 1296.72 177.082C1296.72 221.807 1307.39 250.426 1326.94 271.887C1348.25 293.361 1385.57 300.519 1414 300.519H1483.32L1506.42 245.057H1630.81L1653.93 300.519H1774.75V112.686L1886.71 300.519Z" fill="white"/>
<path d="M1206.11 50.08H1266.51V300.519H1206.11V50.08Z" fill="white"/>
<path d="M1069.26 50.08C1099.47 50.08 1120.78 50.08 1140.33 60.817C1159.88 73.3305 1172.33 89.4361 1172.32 118.055C1172.32 157.411 1145.64 177.082 1129.67 184.24C1142.1 189.596 1152.76 198.543 1158.1 205.701C1166.97 218.228 1168.74 228.965 1168.74 250.426V300.519H1108.33V268.321C1108.33 254.018 1110.12 232.544 1099.46 220.017C1090.58 211.07 1076.36 209.28 1055.03 209.28H991.056V300.519H932.417V50.08H1069.26Z" fill="white"/>
<path d="M751.153 248.649H889.764V300.532H690.736V50.0929H889.764V101.962H751.153V146.687H887.986V198.556H751.153V248.649Z" fill="white"/>
<path d="M548.569 50.08H646.293V300.519H585.876V103.752L498.793 300.519H447.264L360.194 103.752V300.519H239.348L216.25 245.057H91.8606L68.763 300.519H4.7906L111.416 50.08H200.263L301.555 286.203V50.08H397.514L475.708 220.017L548.569 50.08Z" fill="white"/>
<path d="M1348.25 584.958L1348.44 585.422L1348.5 585.397L1348.55 585.357L1348.25 584.958ZM1319.82 588.524V588.024L1319.81 588.024L1319.82 588.524ZM1246.96 590.327H1246.46V590.839L1246.97 590.827L1246.96 590.327ZM1246.96 533.063V532.563H1246.46V533.063H1246.96ZM1348.25 538.431L1347.95 538.83L1347.98 538.857L1348.02 538.878L1348.25 538.431ZM980.402 597.472H979.902V597.972H980.402V597.472ZM980.402 533.063V532.563H979.902V533.063H980.402ZM829.347 606.406L828.983 606.064L828.669 606.397L828.974 606.739L829.347 606.406ZM921.75 508.036H922.25V506.773L921.386 507.693L921.75 508.036ZM921.75 710.171L921.377 710.504L922.25 711.484V710.171H921.75ZM685.402 679.762V680.262H685.622L685.77 680.101L685.402 679.762ZM537.903 679.762H537.403V680.262H537.903V679.762ZM537.903 629.67V629.17H537.403V629.67H537.903ZM669.403 629.67V630.17H669.903V629.67H669.403ZM669.403 579.603H669.903V579.103H669.403V579.603ZM537.903 579.603H537.403V580.103H537.903V579.603ZM537.903 533.076V532.576H537.403V533.076H537.903ZM687.18 533.076L687.553 532.742L687.404 532.576H687.18V533.076ZM752.93 606.419L753.298 606.758L753.606 606.424L753.303 606.085L752.93 606.419ZM1609.5 191.398V191.898H1610.25L1609.96 191.206L1609.5 191.398ZM1568.61 93.015L1569.07 92.8231L1568.61 91.7118L1568.15 92.8232L1568.61 93.015ZM1527.75 191.398L1527.29 191.207L1527 191.898H1527.75V191.398ZM1094.14 152.055L1093.91 151.609L1093.9 151.618L1093.88 151.627L1094.14 152.055ZM991.056 157.424H990.556V157.924H991.056V157.424ZM991.056 101.975V101.475H990.556V101.975H991.056ZM1094.13 105.554L1094.43 105.156L1094.39 105.128L1094.35 105.108L1094.13 105.554ZM113.18 191.398L112.719 191.206L112.431 191.898H113.18V191.398ZM154.055 93.015L154.517 92.8232L154.055 91.7118L153.594 92.8232L154.055 93.015ZM194.93 191.398V191.898H195.679L195.392 191.206L194.93 191.398ZM1348.06 584.494C1339.29 588.018 1330.5 588.024 1319.82 588.024V589.024C1330.47 589.024 1339.46 589.03 1348.44 585.422L1348.06 584.494ZM1319.81 588.024L1246.95 589.827L1246.97 590.827L1319.83 589.024L1319.81 588.024ZM1247.46 590.327V533.063H1246.46V590.327H1247.46ZM1246.96 533.563H1319.82V532.563H1246.96V533.563ZM1319.82 533.563C1325.16 533.563 1330.46 533.564 1335.3 534.229C1340.15 534.894 1344.5 536.218 1347.95 538.83L1348.55 538.032C1344.91 535.276 1340.37 533.915 1335.44 533.238C1330.51 532.562 1325.14 532.563 1319.82 532.563V533.563ZM1348.02 538.878C1354.98 542.386 1360.18 549.359 1360.18 559.905H1361.18C1361.18 548.977 1355.77 541.661 1348.48 537.985L1348.02 538.878ZM1360.18 559.905C1360.18 570.472 1354.96 579.276 1347.95 584.559L1348.55 585.357C1355.79 579.903 1361.18 570.813 1361.18 559.905H1360.18ZM1058.6 596.972H980.402V597.972H1058.6V596.972ZM980.902 597.472V533.063H979.902V597.472H980.902ZM980.402 533.563H1058.6V532.563H980.402V533.563ZM1058.6 533.563C1069.2 533.563 1077.96 535.792 1084.06 540.618C1090.13 545.427 1093.64 552.873 1093.64 563.484H1094.64C1094.64 552.634 1091.04 544.87 1084.68 539.834C1078.34 534.813 1069.32 532.563 1058.6 532.563V533.563ZM1093.64 563.484C1093.64 574.106 1090.12 582.462 1084.02 588.165C1077.91 593.873 1069.16 596.972 1058.6 596.972V597.972C1069.35 597.972 1078.37 594.814 1084.7 588.896C1091.04 582.974 1094.64 574.336 1094.64 563.484H1093.64ZM829.711 606.748L922.115 508.378L921.386 507.693L828.983 606.064L829.711 606.748ZM921.25 508.036V710.171H922.25V508.036H921.25ZM922.124 709.839L829.72 606.074L828.974 606.739L921.377 710.504L922.124 709.839ZM685.402 679.262H537.903V680.262H685.402V679.262ZM538.403 679.762V629.67H537.403V679.762H538.403ZM537.903 630.17H669.403V629.17H537.903V630.17ZM669.903 629.67V579.603H668.903V629.67H669.903ZM669.403 579.103H537.903V580.103H669.403V579.103ZM538.403 579.603V533.076H537.403V579.603H538.403ZM537.903 533.576H687.18V532.576H537.903V533.576ZM686.808 533.409L752.558 606.753L753.303 606.085L687.553 532.742L686.808 533.409ZM752.563 606.08L685.035 679.424L685.77 680.101L753.298 606.758L752.563 606.08ZM1972 300.019H1971.99V301.019H1972V300.019ZM646.305 49.58H646.293V50.58H646.305V49.58ZM1609.96 191.206L1569.07 92.8231L1568.15 93.2069L1609.04 191.59L1609.96 191.206ZM1568.15 92.8232L1527.29 191.207L1528.21 191.59L1569.07 93.2068L1568.15 92.8232ZM1527.75 191.898H1609.5V190.898H1527.75V191.898ZM1093.88 151.627C1085.14 156.912 1076.4 156.924 1063.93 156.924V157.924C1076.35 157.924 1085.38 157.935 1094.4 152.483L1093.88 151.627ZM1063.93 156.924H991.056V157.924H1063.93V156.924ZM991.556 157.424V101.975H990.556V157.424H991.556ZM991.056 102.475H1063.92V101.475H991.056V102.475ZM1063.92 102.475C1069.25 102.475 1075 102.476 1080.31 102.921C1085.62 103.367 1090.43 104.256 1093.9 106.001L1094.35 105.108C1090.7 103.273 1085.73 102.373 1080.39 101.924C1075.04 101.475 1069.25 101.475 1063.92 101.475V102.475ZM1093.82 105.953C1100.78 111.217 1104.29 118.219 1104.29 128.805H1105.29C1105.29 117.942 1101.66 110.629 1094.43 105.156L1093.82 105.953ZM1104.29 128.805C1104.29 139.458 1100.76 148.145 1093.91 151.609L1094.36 152.501C1101.71 148.782 1105.29 139.6 1105.29 128.805H1104.29ZM113.642 191.59L154.517 93.2068L153.594 92.8232L112.719 191.206L113.642 191.59ZM153.594 93.2068L194.468 191.59L195.392 191.206L154.517 92.8232L153.594 93.2068ZM194.93 190.898H113.18V191.898H194.93V190.898ZM1927.6 731.619H1926.6V732.619H1927.6V731.619ZM1927.6 677.947V676.947H1926.6V677.947H1927.6ZM2066.21 672.605L2066.91 673.312L2066.92 673.307L2066.21 672.605ZM2066.21 638.617L2065.5 639.322L2065.5 639.323L2066.21 638.617ZM2044.87 633.249L2044.84 634.248L2044.86 634.249H2044.87V633.249ZM2124.83 481.18H2125.83V480.18H2124.83V481.18ZM2124.83 534.852V535.852H2125.83V534.852H2124.83ZM1991.56 538.418L1991 537.587L1990.92 537.643L1990.85 537.713L1991.56 538.418ZM1995.11 576.011L1994.66 576.903L1994.76 576.954L1994.87 576.981L1995.11 576.011ZM1995.26 576.049L1995.51 575.078L1995.51 575.078L1995.26 576.049ZM2119.53 599.261L2120.29 598.613L2120.24 598.559L2120.19 598.511L2119.53 599.261ZM1886.71 599.261L1887.47 598.612L1887.42 598.558L1887.37 598.511L1886.71 599.261ZM1762.62 576.086L1762.86 575.116L1762.86 575.116L1762.62 576.086ZM1762.32 576.011L1761.87 576.904L1761.97 576.954L1762.08 576.981L1762.32 576.011ZM1758.76 538.418L1758.21 537.587L1758.18 537.603L1758.16 537.62L1758.76 538.418ZM1892.04 534.852V535.852H1893.04V534.852H1892.04ZM1892.04 481.18H1893.04V480.18H1892.04V481.18ZM1812.08 633.249L1812.05 634.248L1812.07 634.249H1812.08V633.249ZM1833.39 638.617L1832.68 639.319L1832.68 639.322L1833.39 638.617ZM1833.39 672.605L1833.94 673.436L1834.03 673.38L1834.1 673.308L1833.39 672.605ZM1694.78 677.947V676.947H1693.78V677.947H1694.78ZM1694.78 731.619H1693.78V732.619H1694.78V731.619ZM1659.24 679.762H1660.24V678.762H1659.24V679.762ZM1518.87 679.762H1517.87V680.762H1518.87V679.762ZM1518.87 629.67V628.67H1517.87V629.67H1518.87ZM1655.69 629.67V630.67H1656.69V629.67H1655.69ZM1655.69 579.603H1656.69V578.603H1655.69V579.603ZM1518.87 579.603H1517.87V580.603H1518.87V579.603ZM1518.87 533.076V532.076H1517.87V533.076H1518.87ZM1659.24 533.076V534.076H1660.24V533.076H1659.24ZM1659.24 481.206H1660.24V480.206H1659.24V481.206ZM1460.22 481.206V480.206H1459.22V481.206H1460.22ZM1460.22 731.632H1459.22V732.632H1460.22V731.632ZM1659.24 731.632V732.632H1660.24V731.632H1659.24ZM1396.24 493.733L1395.75 494.609L1395.76 494.61L1396.24 493.733ZM1186.55 481.193V480.193H1185.55V481.193H1186.55ZM1186.55 731.619H1185.55V732.619H1186.55V731.619ZM1246.96 731.619V732.619H1247.96V731.619H1246.96ZM1246.96 640.394V639.394H1245.96V640.394H1246.96ZM1353.6 651.13L1354.36 650.482L1354.33 650.452L1354.31 650.425L1353.6 651.13ZM1364.26 731.619H1363.26V732.619H1364.26V731.619ZM1422.89 731.619V732.619H1423.89V731.619H1422.89ZM1414.01 636.815L1414.88 636.321L1414.85 636.267L1414.82 636.218L1414.01 636.815ZM1383.82 615.341L1383.5 614.392L1380.84 615.284L1383.46 616.276L1383.82 615.341ZM1426.47 549.155H1427.47L1427.47 549.155L1426.47 549.155ZM868.444 481.193V480.193H868.008L867.711 480.513L868.444 481.193ZM792.027 563.484L791.295 564.165L792.027 564.954L792.76 564.165L792.027 563.484ZM715.624 481.193L716.357 480.513L716.06 480.193H715.624V481.193ZM479.263 481.193V480.193H478.263V481.193H479.263ZM479.263 731.619H478.263V732.619H479.263V731.619ZM715.624 731.619V732.619H716.06L716.357 732.299L715.624 731.619ZM792.04 649.328L792.789 648.665L792.058 647.84L791.308 648.648L792.04 649.328ZM864.901 731.619L864.153 732.282L864.451 732.619H864.901V731.619ZM980.415 731.619V732.619H981.415V731.619H980.415ZM980.415 647.565V646.565H979.415V647.565H980.415ZM1158.14 563.484L1159.14 563.484L1159.14 563.484L1158.14 563.484ZM1971.99 300.519V301.519H1972.99V300.519H1971.99ZM1886.71 300.519L1885.85 301.031L1886.14 301.519H1886.71V300.519ZM1774.75 112.686L1775.61 112.174L1773.75 109.056V112.686H1774.75ZM1774.75 300.519V301.519H1775.75V300.519H1774.75ZM1653.93 300.519L1653.01 300.904L1653.26 301.519H1653.93V300.519ZM1630.81 245.057L1631.73 244.673L1631.47 244.057H1630.81V245.057ZM1506.42 245.057V244.057H1505.75L1505.49 244.673L1506.42 245.057ZM1483.32 300.519V301.519H1483.99L1484.24 300.903L1483.32 300.519ZM1326.94 271.887L1326.2 272.56L1326.22 272.576L1326.23 272.591L1326.94 271.887ZM1328.7 78.699L1329.4 79.4036L1329.42 79.3867L1329.44 79.3689L1328.7 78.699ZM1476.18 50.08H1477.18V49.08H1476.18V50.08ZM1476.18 103.752V104.752H1477.18V103.752H1476.18ZM1373.13 118.068L1372.47 117.311L1372.44 117.336L1372.42 117.363L1373.13 118.068ZM1373.13 234.346L1372.36 234.995L1372.39 235.024L1372.42 235.051L1373.13 234.346ZM1440.65 246.86V247.86H1441.31L1441.57 247.258L1440.65 246.86ZM1525.95 50.0929V49.0929H1525.29L1525.03 49.6952L1525.95 50.0929ZM1614.81 50.0929L1615.73 49.7045L1615.47 49.0929H1614.81V50.0929ZM1714.32 286.216L1713.4 286.604L1715.32 286.216H1714.32ZM1714.32 50.08V49.08H1713.32V50.08H1714.32ZM1806.74 50.08L1807.59 49.5628L1807.3 49.08H1806.74V50.08ZM1911.58 223.596L1910.73 224.113L1912.58 227.185V223.596H1911.58ZM1911.58 50.08V49.08H1910.58V50.08H1911.58ZM1971.99 50.08H1972.99V49.08H1971.99V50.08ZM1266.51 50.08H1267.51V49.08H1266.51V50.08ZM1206.11 50.08V49.08H1205.11V50.08H1206.11ZM1206.11 300.519H1205.11V301.519H1206.11V300.519ZM1266.51 300.519V301.519H1267.51V300.519H1266.51ZM1140.33 60.817L1140.87 59.9749L1140.84 59.9567L1140.81 59.9405L1140.33 60.817ZM932.417 50.08V49.08H931.417V50.08H932.417ZM932.417 300.519H931.417V301.519H932.417V300.519ZM991.056 300.519V301.519H992.056V300.519H991.056ZM991.056 209.28V208.28H990.056V209.28H991.056ZM1099.46 220.017L1100.22 219.369L1100.2 219.34L1100.17 219.313L1099.46 220.017ZM1108.33 300.519H1107.33V301.519H1108.33V300.519ZM1168.74 300.519V301.519H1169.74V300.519H1168.74ZM1158.1 205.701L1158.91 205.123L1158.91 205.113L1158.9 205.104L1158.1 205.701ZM1129.67 184.24L1129.26 183.328L1127.18 184.258L1129.27 185.159L1129.67 184.24ZM1172.32 118.055L1171.32 118.055V118.055H1172.32ZM889.764 248.649H890.764V247.649H889.764V248.649ZM751.153 248.649H750.153V249.649H751.153V248.649ZM751.153 198.556V197.556H750.153V198.556H751.153ZM887.986 198.556V199.556H888.986V198.556H887.986ZM887.986 146.687H888.986V145.687H887.986V146.687ZM751.153 146.687H750.153V147.687H751.153V146.687ZM751.153 101.962V100.962H750.153V101.962H751.153ZM889.764 101.962V102.962H890.764V101.962H889.764ZM889.764 50.0929H890.764V49.0929H889.764V50.0929ZM690.736 50.0929V49.0929H689.736V50.0929H690.736ZM690.736 300.532H689.736V301.532H690.736V300.532ZM889.764 300.532V301.532H890.764V300.532H889.764ZM646.293 50.08H647.293V49.08H646.293V50.08ZM548.569 50.08V49.08H547.91L547.65 49.6859L548.569 50.08ZM475.708 220.017L474.8 220.435L475.74 222.48L476.627 220.412L475.708 220.017ZM397.514 50.08L398.422 49.6619L398.154 49.08H397.514V50.08ZM301.555 50.08V49.08H300.555V50.08H301.555ZM301.555 286.203L300.636 286.597L302.555 286.203H301.555ZM200.263 50.08L201.182 49.6857L200.922 49.08H200.263V50.08ZM111.416 50.08V49.08H110.754L110.496 49.6882L111.416 50.08ZM4.7906 300.519L3.87052 300.127L3.27799 301.519H4.7906V300.519ZM68.763 300.519V301.519H69.4298L69.6862 300.903L68.763 300.519ZM91.8606 245.057V244.057H91.1938L90.9375 244.673L91.8606 245.057ZM216.25 245.057L217.173 244.673L216.917 244.057H216.25V245.057ZM239.348 300.519L238.424 300.903L238.681 301.519H239.348V300.519ZM360.194 300.519V301.519H361.194V300.519H360.194ZM360.194 103.752L361.109 103.347L359.194 103.752H360.194ZM447.264 300.519L446.35 300.923L446.613 301.519H447.264V300.519ZM498.793 300.519V301.519H499.444L499.707 300.924L498.793 300.519ZM585.876 103.752H586.876L584.961 103.347L585.876 103.752ZM585.876 300.519H584.876V301.519H585.876V300.519ZM646.293 300.519V301.519H647.293V300.519H646.293ZM2136.28 652.933C2136.28 679.547 2127.92 698.898 2112.21 711.626C2096.47 724.385 2073.18 730.619 2043.08 730.619V732.619C2073.41 732.619 2097.23 726.346 2113.47 713.18C2129.76 699.982 2138.28 679.991 2138.28 652.933H2136.28ZM2043.08 730.619H1927.6V732.619H2043.08V730.619ZM1928.6 731.619V677.947H1926.6V731.619H1928.6ZM1927.6 678.947H2043.08V676.947H1927.6V678.947ZM2043.08 678.947C2048.47 678.947 2053.43 678.499 2057.52 677.589C2061.58 676.687 2064.93 675.299 2066.91 673.312L2065.5 671.897C2063.92 673.476 2061.03 674.76 2057.09 675.637C2053.18 676.506 2048.37 676.947 2043.08 676.947V678.947ZM2066.92 673.307C2070.57 669.607 2074.31 664.001 2074.31 656.499H2072.31C2072.31 663.287 2068.93 668.418 2065.49 671.902L2066.92 673.307ZM2074.31 656.499C2074.31 649.049 2070.65 641.654 2066.92 637.911L2065.5 639.323C2068.88 642.712 2072.31 649.607 2072.31 656.499H2074.31ZM2066.92 637.912C2064.96 635.942 2062.1 634.535 2058.45 633.616C2054.79 632.696 2050.26 632.249 2044.87 632.249V634.249C2050.16 634.249 2054.51 634.689 2057.96 635.556C2061.41 636.423 2063.89 637.7 2065.5 639.322L2066.92 637.912ZM2044.91 632.249C2017.27 631.344 1986.4 631.781 1962.38 622.688C1950.42 618.158 1940.22 611.279 1933 600.728C1925.78 590.175 1921.48 575.854 1921.48 556.326H1919.48C1919.48 576.148 1923.85 590.892 1931.35 601.857C1938.85 612.826 1949.43 619.922 1961.67 624.559C1986.09 633.802 2017.41 633.35 2044.84 634.248L2044.91 632.249ZM1921.48 556.326C1921.48 538.636 1927.19 520.113 1940.53 506.019C1953.86 491.942 1974.9 482.18 2005.78 482.18V480.18C1974.46 480.18 1952.85 490.097 1939.08 504.645C1925.33 519.177 1919.48 538.226 1919.48 556.326H1921.48ZM2005.78 482.18H2124.83V480.18H2005.78V482.18ZM2123.83 481.18V534.852H2125.83V481.18H2123.83ZM2124.83 533.852H2014.65V535.852H2124.83V533.852ZM2014.65 533.852C2009.35 533.852 2004.85 533.851 2001 534.305C1997.13 534.761 1993.85 535.684 1991 537.587L1992.11 539.249C1994.6 537.587 1997.54 536.727 2001.23 536.291C2004.94 535.854 2009.31 535.852 2014.65 535.852V533.852ZM1990.85 537.713C1985.4 543.193 1981.68 548.8 1981.68 558.103H1983.68C1983.68 549.511 1987.04 544.381 1992.26 539.123L1990.85 537.713ZM1981.68 558.103C1981.68 567.572 1987.38 573.218 1994.66 576.903L1995.56 575.118C1988.65 571.62 1983.68 566.529 1983.68 558.103H1981.68ZM1994.87 576.981L1995.02 577.019L1995.51 575.078L1995.35 575.04L1994.87 576.981ZM1995.02 577.019C2002.09 578.782 2009.27 580.577 2018.23 580.577V578.577C2009.55 578.577 2002.58 576.843 1995.51 575.078L1995.02 577.019ZM2018.23 580.577H2050.21V578.577H2018.23V580.577ZM2050.21 580.577C2083.84 580.577 2104.9 587.695 2118.86 600.011L2120.19 598.511C2105.71 585.748 2084.1 578.577 2050.21 578.577V580.577ZM2118.76 599.909C2129.24 612.231 2136.28 628.116 2136.28 652.933H2138.28C2138.28 627.67 2131.09 611.318 2120.29 598.613L2118.76 599.909ZM1887.37 598.511C1872.89 585.748 1851.28 578.577 1817.39 578.577V580.577C1851.02 580.577 1872.08 587.695 1886.05 600.011L1887.37 598.511ZM1817.39 578.577H1785.42V580.577H1817.39V578.577ZM1785.42 578.577C1776.8 578.577 1769.87 576.856 1762.86 575.116L1762.38 577.057C1769.38 578.795 1776.53 580.577 1785.42 580.577V578.577ZM1762.86 575.116L1762.56 575.04L1762.08 576.981L1762.38 577.057L1762.86 575.116ZM1762.77 575.118C1755.83 571.62 1750.89 566.53 1750.89 558.103H1748.89C1748.89 567.57 1754.56 573.217 1761.87 576.904L1762.77 575.118ZM1750.89 558.103C1750.89 553.683 1751.33 550.26 1752.58 547.309C1753.82 544.377 1755.91 541.823 1759.37 539.216L1758.16 537.62C1754.5 540.382 1752.15 543.196 1750.74 546.527C1749.33 549.839 1748.89 553.574 1748.89 558.103H1750.89ZM1759.32 539.249C1761.81 537.586 1764.74 536.726 1768.43 536.291C1772.13 535.854 1776.51 535.852 1781.86 535.852V533.852C1776.55 533.852 1772.04 533.851 1768.19 534.305C1764.33 534.761 1761.05 535.684 1758.21 537.587L1759.32 539.249ZM1781.86 535.852H1892.04V533.852H1781.86V535.852ZM1893.04 534.852V481.18H1891.04V534.852H1893.04ZM1892.04 480.18H1772.99V482.18H1892.04V480.18ZM1772.99 480.18C1740.78 480.18 1719.16 490.092 1705.6 504.65C1692.06 519.192 1686.67 538.244 1686.67 556.326H1688.67C1688.67 538.618 1693.94 520.098 1707.06 506.014C1720.17 491.946 1741.21 482.18 1772.99 482.18V480.18ZM1686.67 556.326C1686.67 576.145 1691.03 590.887 1698.53 601.852C1706.04 612.82 1716.61 619.916 1728.86 624.554C1753.27 633.799 1784.6 633.35 1812.05 634.248L1812.11 632.249C1784.46 631.344 1753.59 631.778 1729.57 622.683C1717.6 618.152 1707.4 611.273 1700.18 600.723C1692.97 590.17 1688.67 575.851 1688.67 556.326H1686.67ZM1812.08 634.249C1817.35 634.249 1821.71 634.689 1825.15 635.556C1828.61 636.423 1831.08 637.7 1832.68 639.319L1834.1 637.915C1832.16 635.942 1829.3 634.534 1825.64 633.616C1821.98 632.696 1817.45 632.249 1812.08 632.249V634.249ZM1832.68 639.322C1836.05 642.714 1839.51 649.611 1839.51 656.499H1841.51C1841.51 649.045 1837.81 641.652 1834.1 637.912L1832.68 639.322ZM1839.51 656.499C1839.51 663.286 1836.13 668.416 1832.68 671.901L1834.1 673.308C1837.76 669.609 1841.51 664.002 1841.51 656.499H1839.51ZM1832.83 671.773C1827.73 675.186 1820.86 676.947 1810.29 676.947V678.947C1821.06 678.947 1828.38 677.156 1833.94 673.436L1832.83 671.773ZM1810.29 676.947H1694.78V678.947H1810.29V676.947ZM1693.78 677.947V731.619H1695.78V677.947H1693.78ZM1694.78 732.619H1810.29V730.619H1694.78V732.619ZM1810.29 732.619C1840.61 732.619 1864.42 726.342 1880.66 713.175C1896.95 699.976 1905.47 679.985 1905.47 652.933H1903.47C1903.47 679.54 1895.11 698.892 1879.4 711.621C1863.66 724.382 1840.38 730.619 1810.29 730.619V732.619ZM1905.47 652.933C1905.47 627.671 1898.3 611.318 1887.47 598.612L1885.95 599.91C1896.45 612.231 1903.47 628.115 1903.47 652.933H1905.47ZM1659.24 678.762H1518.87V680.762H1659.24V678.762ZM1519.87 679.762V629.67H1517.87V679.762H1519.87ZM1518.87 630.67H1655.69V628.67H1518.87V630.67ZM1656.69 629.67V579.603H1654.69V629.67H1656.69ZM1655.69 578.603H1518.87V580.603H1655.69V578.603ZM1519.87 579.603V533.076H1517.87V579.603H1519.87ZM1518.87 534.076H1659.24V532.076H1518.87V534.076ZM1660.24 533.076V481.206H1658.24V533.076H1660.24ZM1659.24 480.206H1460.22V482.206H1659.24V480.206ZM1459.22 481.206V731.632H1461.22V481.206H1459.22ZM1460.22 732.632H1659.24V730.632H1460.22V732.632ZM1660.24 731.632V679.762H1658.24V731.632H1660.24ZM1396.72 492.856C1376.92 481.984 1353.58 480.193 1323.37 480.193V482.193C1353.58 482.193 1376.45 484.008 1395.75 494.609L1396.72 492.856ZM1323.37 480.193H1186.55V482.193H1323.37V480.193ZM1185.55 481.193V731.619H1187.55V481.193H1185.55ZM1186.55 732.619H1246.96V730.619H1186.55V732.619ZM1247.96 731.619V640.394H1245.96V731.619H1247.96ZM1246.96 641.394H1310.94V639.394H1246.96V641.394ZM1310.94 641.394C1332.28 641.394 1344.32 643.228 1352.89 651.836L1354.31 650.425C1345.09 641.164 1332.22 639.394 1310.94 639.394V641.394ZM1352.84 651.779C1357.99 657.829 1360.62 666.109 1361.94 674.977C1363.26 683.838 1363.26 693.159 1363.26 701.224H1365.26C1365.26 693.183 1365.26 683.714 1363.92 674.683C1362.57 665.66 1359.87 656.946 1354.36 650.482L1352.84 651.779ZM1363.26 701.224V731.619H1365.26V701.224H1363.26ZM1364.26 732.619H1422.89V730.619H1364.26V732.619ZM1423.89 731.619V683.316H1421.89V731.619H1423.89ZM1423.89 683.316C1423.89 660.009 1422.12 649.061 1414.88 636.321L1413.14 637.309C1420.13 649.595 1421.89 660.121 1421.89 683.316H1423.89ZM1414.82 636.218C1409.36 628.887 1398.56 619.838 1384.17 614.405L1383.46 616.276C1397.51 621.58 1408 630.401 1413.21 637.411L1414.82 636.218ZM1384.13 616.289C1400.44 610.834 1427.47 589.026 1427.47 549.155H1425.47C1425.47 588.022 1399.14 609.162 1383.5 614.392L1384.13 616.289ZM1427.47 549.155C1427.46 534.728 1424.77 523.368 1419.55 514.237C1414.33 505.101 1406.62 498.278 1396.72 492.856L1395.76 494.61C1405.41 499.898 1412.81 506.484 1417.81 515.23C1422.82 523.981 1425.46 534.976 1425.47 549.156L1427.47 549.155ZM1058.6 480.193H868.444V482.193H1058.6V480.193ZM867.711 480.513L791.295 562.804L792.76 564.165L869.177 481.874L867.711 480.513ZM792.76 562.804L716.357 480.513L714.891 481.874L791.295 564.165L792.76 562.804ZM715.624 480.193H479.263V482.193H715.624V480.193ZM478.263 481.193V731.619H480.263V481.193H478.263ZM479.263 732.619H715.624V730.619H479.263V732.619ZM716.357 732.299L792.773 650.009L791.308 648.648L714.891 730.939L716.357 732.299ZM791.292 649.991L864.153 732.282L865.65 730.956L792.789 648.665L791.292 649.991ZM864.901 732.619H980.415V730.619H864.901V732.619ZM981.415 731.619V647.565H979.415V731.619H981.415ZM980.415 648.565H1055.05V646.565H980.415V648.565ZM1055.05 648.565C1080.87 648.565 1106.88 644.985 1126.46 632.53C1146.12 620.02 1159.14 598.655 1159.14 563.484H1157.14C1157.14 598.078 1144.38 618.753 1125.38 630.842C1106.3 642.986 1080.76 646.565 1055.05 646.565V648.565ZM1159.14 563.484C1159.13 529.185 1145.65 508.278 1126.22 496.003C1106.88 483.777 1081.77 480.193 1058.6 480.193V482.193C1081.63 482.193 1106.28 485.767 1125.16 497.693C1143.95 509.57 1157.13 529.808 1157.14 563.484L1159.14 563.484ZM1971.99 299.519H1886.71V301.519H1971.99V299.519ZM1887.57 300.007L1775.61 112.174L1773.89 113.198L1885.85 301.031L1887.57 300.007ZM1773.75 112.686V300.519H1775.75V112.686H1773.75ZM1774.75 299.519H1653.93V301.519H1774.75V299.519ZM1654.85 300.134L1631.73 244.673L1629.88 245.442L1653.01 300.904L1654.85 300.134ZM1630.81 244.057H1506.42V246.057H1630.81V244.057ZM1505.49 244.673L1482.4 300.134L1484.24 300.903L1507.34 245.442L1505.49 244.673ZM1483.32 299.519H1414V301.519H1483.32V299.519ZM1414 299.519C1399.86 299.519 1383.52 297.738 1368.08 293.295C1352.63 288.849 1338.15 281.757 1327.65 271.182L1326.23 272.591C1337.05 283.49 1351.88 290.715 1367.52 295.217C1383.18 299.721 1399.71 301.519 1414 301.519V299.519ZM1327.68 271.213C1308.34 249.986 1297.72 221.633 1297.72 177.082H1295.72C1295.72 221.981 1306.44 250.866 1326.2 272.56L1327.68 271.213ZM1297.72 177.082C1297.72 139.589 1303.05 105.944 1329.4 79.4036L1327.99 77.9944C1301.06 105.113 1295.72 139.443 1295.72 177.082H1297.72ZM1329.44 79.3689C1346.91 60.0076 1378.54 51.08 1419.32 51.08V49.08C1378.38 49.08 1346.01 58.0214 1327.95 78.029L1329.44 79.3689ZM1419.32 51.08H1476.18V49.08H1419.32V51.08ZM1475.18 50.08V103.752H1477.18V50.08H1475.18ZM1476.18 102.752H1419.32V104.752H1476.18V102.752ZM1419.32 102.752C1397.87 102.752 1385.14 106.366 1372.47 117.311L1373.78 118.825C1385.97 108.296 1398.16 104.752 1419.32 104.752V102.752ZM1372.42 117.363C1361.46 128.393 1356.13 148.411 1356.13 175.306H1358.13C1358.13 148.542 1363.46 129.217 1373.83 118.773L1372.42 117.363ZM1356.13 175.306C1356.13 202.233 1361.47 222.204 1372.36 234.995L1373.89 233.698C1363.45 221.436 1358.13 202.038 1358.13 175.306H1356.13ZM1372.42 235.051C1381.58 244.279 1397.94 247.86 1413.99 247.86V245.86C1398.08 245.86 1382.42 242.283 1373.83 233.642L1372.42 235.051ZM1413.99 247.86H1440.65V245.86H1413.99V247.86ZM1441.57 247.258L1526.86 50.4906L1525.03 49.6952L1439.74 246.462L1441.57 247.258ZM1525.95 51.0929H1614.81V49.0929H1525.95V51.0929ZM1613.88 50.4813L1713.4 286.604L1715.24 285.827L1615.73 49.7045L1613.88 50.4813ZM1715.32 286.216V50.08H1713.32V286.216H1715.32ZM1714.32 51.08H1806.74V49.08H1714.32V51.08ZM1805.88 50.5971L1910.73 224.113L1912.44 223.079L1807.59 49.5628L1805.88 50.5971ZM1912.58 223.596V50.08H1910.58V223.596H1912.58ZM1911.58 51.08H1971.99V49.08H1911.58V51.08ZM1970.99 50.08V300.519H1972.99V50.08H1970.99ZM1266.51 49.08H1206.11V51.08H1266.51V49.08ZM1205.11 50.08V300.519H1207.11V50.08H1205.11ZM1206.11 301.519H1266.51V299.519H1206.11V301.519ZM1267.51 300.519V50.08H1265.51V300.519H1267.51ZM1140.81 59.9405C1120.99 49.0567 1099.4 49.08 1069.26 49.08V51.08C1099.54 51.08 1120.56 51.1033 1139.85 61.6936L1140.81 59.9405ZM1069.26 49.08H932.417V51.08H1069.26V49.08ZM931.417 50.08V300.519H933.417V50.08H931.417ZM932.417 301.519H991.056V299.519H932.417V301.519ZM992.056 300.519V209.28H990.056V300.519H992.056ZM991.056 210.28H1055.03V208.28H991.056V210.28ZM1055.03 210.28C1065.68 210.28 1074.48 210.729 1081.71 212.272C1088.91 213.811 1094.49 216.427 1098.75 220.722L1100.17 219.313C1095.55 214.66 1089.58 211.908 1082.12 210.316C1074.68 208.727 1065.71 208.28 1055.03 208.28V210.28ZM1098.7 220.666C1103.83 226.699 1106.02 234.956 1106.9 243.604C1107.78 252.259 1107.33 261.101 1107.33 268.321H1109.33C1109.33 261.238 1109.78 252.191 1108.89 243.402C1108 234.606 1105.75 225.862 1100.22 219.369L1098.7 220.666ZM1107.33 268.321V300.519H1109.33V268.321H1107.33ZM1108.33 301.519H1168.74V299.519H1108.33V301.519ZM1169.74 300.519V250.426H1167.74V300.519H1169.74ZM1169.74 250.426C1169.74 228.898 1167.97 217.905 1158.91 205.123L1157.28 206.279C1165.98 218.55 1167.74 229.032 1167.74 250.426H1169.74ZM1158.9 205.104C1153.46 197.797 1142.65 188.743 1130.06 183.322L1129.27 185.159C1141.55 190.449 1152.07 199.29 1157.3 206.299L1158.9 205.104ZM1130.08 185.153C1146.25 177.907 1173.32 157.958 1173.32 118.055H1171.32C1171.32 156.865 1145.04 176.258 1129.26 183.328L1130.08 185.153ZM1173.32 118.056C1173.33 103.593 1170.18 92.2263 1164.51 82.8782C1158.86 73.5383 1150.72 66.2833 1140.87 59.9749L1139.79 61.6592C1149.48 67.8642 1157.35 74.9187 1162.8 83.9147C1168.25 92.9025 1171.33 103.898 1171.32 118.055L1173.32 118.056ZM889.764 247.649H751.153V249.649H889.764V247.649ZM752.153 248.649V198.556H750.153V248.649H752.153ZM751.153 199.556H887.986V197.556H751.153V199.556ZM888.986 198.556V146.687H886.986V198.556H888.986ZM887.986 145.687H751.153V147.687H887.986V145.687ZM752.153 146.687V101.962H750.153V146.687H752.153ZM751.153 102.962H889.764V100.962H751.153V102.962ZM890.764 101.962V50.0929H888.764V101.962H890.764ZM889.764 49.0929H690.736V51.0929H889.764V49.0929ZM689.736 50.0929V300.532H691.736V50.0929H689.736ZM690.736 301.532H889.764V299.532H690.736V301.532ZM890.764 300.532V248.649H888.764V300.532H890.764ZM646.293 49.08H548.569V51.08H646.293V49.08ZM547.65 49.6859L474.789 219.623L476.627 220.412L549.488 50.474L547.65 49.6859ZM476.616 219.599L398.422 49.6619L396.605 50.498L474.8 220.435L476.616 219.599ZM397.514 49.08H301.555V51.08H397.514V49.08ZM300.555 50.08V286.203H302.555V50.08H300.555ZM302.474 285.809L201.182 49.6857L199.344 50.4742L300.636 286.597L302.474 285.809ZM200.263 49.08H111.416V51.08H200.263V49.08ZM110.496 49.6882L3.87052 300.127L5.71069 300.911L112.336 50.4717L110.496 49.6882ZM4.7906 301.519H68.763V299.519H4.7906V301.519ZM69.6862 300.903L92.7838 245.442L90.9375 244.673L67.8399 300.134L69.6862 300.903ZM91.8606 246.057H216.25V244.057H91.8606V246.057ZM215.327 245.442L238.424 300.903L240.271 300.134L217.173 244.673L215.327 245.442ZM239.348 301.519H360.194V299.519H239.348V301.519ZM361.194 300.519V103.752H359.194V300.519H361.194ZM359.28 104.156L446.35 300.923L448.179 300.114L361.109 103.347L359.28 104.156ZM447.264 301.519H498.793V299.519H447.264V301.519ZM499.707 300.924L586.79 104.157L584.961 103.347L497.878 300.114L499.707 300.924ZM584.876 103.752V300.519H586.876V103.752H584.876ZM585.876 301.519H646.293V299.519H585.876V301.519ZM647.293 300.519V50.08H645.293V300.519H647.293Z" fill="black" mask="url(#path-1-inside-1_2_20)"/>
</g>
<defs>
<filter id="filter0_d_2_20" x="0.790604" y="50.08" width="2140.49" height="689.552" filterUnits="userSpaceOnUse" color-interpolation-filters="sRGB">
<feFlood flood-opacity="0" result="BackgroundImageFix"/>
<feColorMatrix in="SourceAlpha" type="matrix" values="0 0 0 0 0 0 0 0 0 0 0 0 0 0 0 0 0 0 127 0" result="hardAlpha"/>
<feOffset dy="4"/>
<feGaussianBlur stdDeviation="2"/>
<feComposite in2="hardAlpha" operator="out"/>
<feColorMatrix type="matrix" values="0 0 0 0 0 0 0 0 0 0 0 0 0 0 0 0 0 0 0.25 0"/>
<feBlend mode="normal" in2="BackgroundImageFix" result="effect1_dropShadow_2_20"/>
<feBlend mode="normal" in="SourceGraphic" in2="effect1_dropShadow_2_20" result="shape"/>
</filter>
</defs>
</svg>
