<svg width="108" height="19" viewBox="0 0 2372 421" fill="none" xmlns="http://www.w3.org/2000/svg">
<path d="M0 7.08009H108.78C230.654 7.08009 338.271 48.9185 338.271 209.841C338.271 370.842 230.654 412.68 108.78 412.68H0V7.08009Z" fill="#C6C6C6"/>
<path d="M370.115 7.08009H449.84V412.68H370.115V7.08009ZM706.837 114.155C679.409 97.0327 649.89 78.9027 618.666 74.9513C590.077 71.3098 559.628 79.9099 559.628 120.431C559.628 190.782 733.877 161.107 733.877 297.082C733.877 385.95 664.456 428.641 584.653 419.731C541.42 414.85 516.394 401.756 481.917 378.512V296.23C509.266 311.338 549.323 339.308 580.159 344.887C614.017 350.93 650.742 340.083 650.742 303.436C650.742 226.112 476.493 258.111 476.493 123.918C476.493 33.2678 545.449 0.107025 615.412 0.107025C649.58 0.107025 680.184 13.2009 706.837 36.4445V114.155ZM1278.47 0.107025C1403.21 0.107025 1484.1 86.1082 1484.1 208.757C1484.1 331.328 1404.3 419.731 1278.47 419.731C1150.94 419.731 1069.2 333.11 1069.2 208.757C1069.2 84.3262 1152.11 0.107025 1278.47 0.107025ZM1457.22 7.08009H1542.6L1631.16 221.386L1713.83 7.08009H1796.57L1640.92 412.68H1612.02L1457.22 7.08009ZM1817.34 7.08009H2051.94V70.9999H1897.06V170.947H2038.85V234.867H1897.06V348.76H2053.1V412.68H1817.34V7.08009ZM2074.33 7.08009H2160.33C2245.79 7.08009 2347.68 4.1359 2347.68 116.867C2347.68 164.516 2316.38 204.031 2265.63 211.004V212.166C2287.24 213.87 2299.8 236.029 2307.78 254.004L2371.54 412.603H2282.75L2234.95 286.003C2223.56 255.786 2213.33 244.164 2179.7 244.164H2154.06V412.68H2074.33V7.08009V7.08009Z" fill="#C6C6C6"/>
<path d="M1049.06 372.159C1029.69 397.262 981.343 412.68 948.725 415.005C825.146 423.682 742.089 354.339 742.089 217.202C742.089 78.3603 814.454 -2.13985 949.267 4.13591C975.455 5.37557 1018.3 14.2081 1047.28 37.9166V116.17C1013.5 95.0957 978.476 80.1424 948.802 78.9027C866.83 75.5711 825.224 128.334 825.224 211.391C825.224 293.906 864.041 340.315 948.88 337.139C981.421 335.899 1031.39 309.169 1048.98 294.448V372.159H1049.06Z" fill="#C6C6C6"/>
</svg>
