<svg width="58" height="40" viewBox="0 0 913 590" fill="none" xmlns="http://www.w3.org/2000/svg">
<path d="M620.409 589.645C781.61 590.436 913.798 458.235 912.669 297.384C913.785 132.136 781.61 -0.0518638 620.409 1.52653e-05H297.397C134.263 -0.038894 2.07516 132.136 0 297.384C2.07516 458.235 134.263 590.423 297.384 589.645H620.409V589.645Z" fill="black"/>
<path d="M20.5182 297.384C22.1264 143.212 145.326 19.9994 297.397 20.5182C449.299 19.9994 572.511 143.212 574.262 297.397C572.511 447.185 449.299 570.397 297.397 569.139C145.326 570.397 22.1264 447.172 20.5182 297.384V297.384Z" fill="white"/>
<path d="M235.855 133.316C172.135 162.07 124.328 223.547 123.057 297.384C124.328 368.445 169.852 431.037 235.855 456.328V133.316ZM358.912 456.341C424.76 431.05 470.271 368.445 471.71 297.397C470.271 221.965 424.747 159.36 358.912 133.329V456.341Z" fill="black"/>
</svg>
