<svg width="80" height="50" viewBox="0 0 2427 1446" fill="none" xmlns="http://www.w3.org/2000/svg">
<path fill-rule="evenodd" clip-rule="evenodd" d="M1213.24 1258.09C1288.59 1190.18 1348.74 1107.46 1389.83 1015.23C1430.93 923.008 1452.06 823.316 1451.87 722.55C1452.06 621.784 1430.93 522.091 1389.84 429.866C1348.74 337.642 1288.59 254.921 1213.24 187.009C1084.4 70.8108 913.486 0 725.931 0C325.022 0 0 323.493 0 722.55C0 1121.59 325.022 1445.1 725.931 1445.1C913.486 1445.1 1084.41 1374.29 1213.24 1258.09Z" fill="#BFD3E0"/>
<path fill-rule="evenodd" clip-rule="evenodd" d="M1700.56 0C1513 0 1342.06 70.8108 1213.24 187.009C1186.97 210.725 1162.48 236.293 1139.95 263.51H1286.48C1306.6 287.803 1325.1 313.361 1341.86 340.023H1084.61C1069.12 364.678 1055.15 390.228 1042.76 416.536H1383.65C1395.39 441.436 1405.67 466.978 1414.46 493.036H1012.02C1003.58 518.136 996.543 543.674 990.942 569.537H1435.55C1446.43 619.831 1451.91 671.12 1451.89 722.55C1451.89 802.767 1438.71 879.946 1414.47 952.051H1012.02C1020.77 978.116 1031.03 1003.66 1042.76 1028.56H1383.65C1371.29 1054.87 1357.33 1080.42 1341.85 1105.08H1084.61C1101.36 1131.74 1119.84 1157.3 1139.94 1181.59H1286.48C1263.99 1208.82 1239.51 1234.39 1213.24 1258.1C1342.06 1374.3 1513 1445.11 1700.56 1445.11C2101.45 1445.11 2426.49 1121.61 2426.49 722.563C2426.49 323.493 2101.45 0 1700.56 0Z" fill="#7B8891"/>
<path fill-rule="evenodd" clip-rule="evenodd" d="M2176.31 879.152C2176.31 866.261 2186.81 855.804 2199.75 855.804C2212.69 855.804 2223.19 866.261 2223.19 879.152C2223.19 892.043 2212.69 902.473 2199.75 902.473C2186.81 902.473 2176.31 892.03 2176.31 879.152ZM2199.74 896.861C2209.57 896.861 2217.54 888.929 2217.54 879.139C2217.54 869.323 2209.57 861.391 2199.74 861.391C2189.88 861.391 2181.93 869.323 2181.93 879.139C2181.93 888.929 2189.89 896.861 2199.74 896.861ZM2196.57 889.377H2191.76V868.875H2200.48C2202.28 868.875 2204.15 868.9 2205.72 869.925C2206.54 870.498 2207.22 871.262 2207.68 872.151C2208.13 873.04 2208.37 874.027 2208.35 875.025C2208.35 877.358 2207 879.51 2204.78 880.331L2208.58 889.365H2203.26L2200.1 881.253H2196.58V889.377V877.768H2199.24C2200.23 877.768 2201.32 877.845 2202.16 877.37C2202.54 877.105 2202.85 876.751 2203.07 876.34C2203.28 875.929 2203.39 875.474 2203.38 875.013C2203.37 874.595 2203.26 874.186 2203.06 873.82C2202.86 873.454 2202.57 873.142 2202.21 872.911C2201.38 872.437 2200.03 872.54 2199.15 872.54H2196.6V889.377H2196.57ZM635.246 902.473H544.898L598.593 620.87L474.965 902.473H392.582L377.524 622.485L323.66 902.473H241.652L311.728 536.156H452.709L460.167 762.94L559.567 536.156H706.476L635.246 902.473V902.473ZM1644.95 898.821C1620.23 905.574 1600.91 908.483 1580.03 908.483C1533.8 908.483 1508.56 885.405 1508.56 843.067C1508.56 834.687 1509.5 825.768 1511.22 816.337L1516.72 787.21L1520.95 763.632L1562.83 536.143H1652.68L1639.66 604.558H1685.77L1673.38 676.983H1627.08L1603.27 801.28C1602.39 805.34 1601.87 809.47 1601.73 813.62C1601.73 829.01 1611.08 835.699 1632.56 835.699C1642.84 835.699 1650.82 834.776 1656.93 832.918L1644.95 898.821ZM1908.84 607.005C1901.26 604.032 1899.49 604.032 1898.6 603.789C1893.82 602.738 1891.26 602.123 1890.82 602.046C1887.82 601.528 1884.78 601.279 1881.73 601.303C1852.07 601.303 1830.68 614.45 1803.03 649.676L1811.01 604.532H1729.18L1674.11 902.46H1764.52C1796.87 720.256 1810.72 688.349 1854.09 688.349C1857.36 688.349 1861.13 688.606 1865.52 689.105L1876.08 691.245L1908.84 607.005V607.005ZM1286.79 698.677C1286.79 736.313 1308.1 762.236 1356.4 781.713C1393.42 796.68 1399.14 801.062 1399.14 814.594C1399.14 833.136 1382.82 841.504 1346.68 841.504C1319.39 841.504 1294.03 837.852 1264.76 829.715L1252.22 898.437L1256.26 899.116L1273.01 902.166C1278.4 903.088 1286.35 903.973 1296.9 904.767C1318.64 906.446 1335.46 907.24 1347.31 907.24C1443.75 907.24 1488.31 875.781 1488.31 807.828C1488.31 766.938 1469.68 742.963 1423.89 724.908C1385.56 709.826 1381.12 706.481 1381.12 692.578C1381.12 676.522 1396.32 668.269 1425.86 668.269C1443.82 668.269 1468.31 669.948 1491.54 672.742L1504.56 603.776C1480.9 600.572 1445 597.946 1424.13 597.946C1321.88 597.958 1286.48 643.73 1286.79 698.677V698.677ZM928.959 902.473H853.877L855.628 871.591C832.762 896.041 802.283 907.625 760.858 907.625C711.897 907.625 678.292 874.436 678.292 826.255C678.292 753.676 736.669 711.376 837.004 711.376C847.289 711.376 860.349 712.183 873.812 713.67C876.613 703.88 877.378 699.651 877.378 694.321C877.378 674.6 861.62 667.219 819.429 667.219C793.633 667.219 764.477 670.448 744.347 675.522L731.832 678.687L723.726 680.61L736.254 613.63C781.298 602.149 811.025 597.805 844.422 597.805C922.072 597.805 963.109 628.072 963.109 685.197C963.109 699.895 961.747 711.056 955.768 744.219L936.884 849.91L933.706 868.875L931.397 884.021L929.854 894.388L928.959 902.473V902.473ZM863.047 769.745C856.348 768.921 849.603 768.51 842.853 768.514C791.648 768.514 765.709 783.75 765.709 813.838C765.709 832.38 778.367 844.22 798.12 844.22C834.954 844.233 861.49 813.8 863.047 769.745ZM1225.36 896.041C1195.18 904.132 1164.05 908.196 1132.78 908.124C1031.77 908.047 979.126 862.275 979.126 774.652C979.126 672.383 1046.1 597.087 1137.02 597.087C1211.4 597.087 1258.9 639.258 1258.9 705.379C1258.9 727.33 1255.65 748.729 1247.81 778.932H1068.16C1067.61 782.022 1067.32 785.15 1067.29 788.287C1067.29 822.821 1094.08 840.44 1146.55 840.44C1178.82 840.44 1207.99 834.61 1240.38 821.591L1225.36 896.041ZM1177.24 718.77C1177.73 712.568 1177.99 707.494 1177.99 703.572C1177.99 679.379 1162.16 665.181 1135.26 665.181C1106.52 665.181 1085.96 684.223 1077.62 718.591L1177.24 718.77ZM2189.69 767.4C2176.16 866.504 2106.63 910.457 2014.19 910.457C1911.98 910.457 1870.69 848.744 1870.69 773.127C1870.69 667.539 1940.61 595.998 2048.6 595.998C2142.33 595.998 2192.1 654.828 2192.1 730.457C2192.1 748.858 2192.07 750.075 2189.69 767.4ZM2096.64 729.278C2096.64 698.114 2083.93 668.692 2046.89 668.692C2000.78 668.692 1972.21 722.935 1972.21 770.821C1972.21 811.211 1991.79 838.351 2024.09 837.775C2043.67 837.775 2085.43 811.224 2093.7 764.85C2095.63 754.034 2096.64 742.169 2096.64 729.278V729.278Z" fill="white"/>
</svg>
